<?xml version="1.0" encoding="UTF-8" standalone="no"?>
<svg
   xmlns:dc="http://purl.org/dc/elements/1.1/"
   xmlns:cc="http://creativecommons.org/ns#"
   xmlns:rdf="http://www.w3.org/1999/02/22-rdf-syntax-ns#"
   xmlns:svg="http://www.w3.org/2000/svg"
   xmlns="http://www.w3.org/2000/svg"
   xmlns:sodipodi="http://sodipodi.sourceforge.net/DTD/sodipodi-0.dtd"
   xmlns:inkscape="http://www.inkscape.org/namespaces/inkscape"
   width="256pt"
   height="256pt"
   viewBox="0 0 256 256"
   version="1.1"
   id="svg2"
   inkscape:version="0.91 r13725"
   sodipodi:docname="subliminal-view.svg">
  <metadata
     id="metadata18">
    <rdf:RDF>
      <cc:Work
         rdf:about="">
        <dc:format>image/svg+xml</dc:format>
        <dc:type
           rdf:resource="http://purl.org/dc/dcmitype/StillImage" />
      </cc:Work>
    </rdf:RDF>
  </metadata>
  <defs
     id="defs16" />
  <sodipodi:namedview
     pagecolor="#ffffff"
     bordercolor="#666666"
     borderopacity="1"
     objecttolerance="10"
     gridtolerance="10"
     guidetolerance="10"
     inkscape:pageopacity="0"
     inkscape:pageshadow="2"
     inkscape:window-width="1600"
     inkscape:window-height="873"
     id="namedview14"
     showgrid="false"
     inkscape:zoom="2.085965"
     inkscape:cx="90.080822"
     inkscape:cy="177.38062"
     inkscape:window-x="0"
     inkscape:window-y="27"
     inkscape:window-maximized="1"
     inkscape:current-layer="svg2" />
  <path
     d=" M 16.76 7.81 C 20.09 4.14 24.91 1.28 29.95 1.20 C 93.65 1.23 157.34 1.20 221.04 1.21 C 224.07 1.25 227.11 1.02 230.13 1.37 C 234.63 2.79 239.07 5.49 241.18 9.88 C 242.93 13.01 242.77 16.69 242.74 20.15 C 242.94 62.43 242.87 104.71 242.88 146.99 C 242.75 169.06 243.17 191.14 242.55 213.19 C 242.38 205.15 242.51 197.11 242.05 189.08 C 240.25 195.26 234.74 200.52 228.03 200.38 C 162.03 200.42 96.02 200.37 30.02 200.41 C 22.72 200.68 16.40 195.33 13.96 188.69 C 13.65 196.82 13.67 204.96 13.68 213.09 C 12.95 207.09 13.50 201.03 13.30 195.01 C 13.30 137.30 13.23 79.59 13.38 21.89 C 13.19 17.03 13.29 11.63 16.76 7.81 Z"
     id="path4"
     fill="#4c4c4c" />
  <path
     fill="#d9d9d9"
     d=" M 242.74 20.15 C 245.54 20.42 248.58 20.39 251.00 22.05 C 253.60 23.62 254.88 26.51 256.00 29.19 L 256.00 231.50 C 255.08 236.54 253.24 241.88 248.98 245.07 C 245.55 247.65 241.00 247.00 236.99 247.12 C 165.65 247.06 94.31 247.11 22.97 247.10 C 12.36 247.30 3.89 238.74 0.00 229.53 L 0.00 32.15 C 2.23 26.65 7.34 22.32 13.38 21.89 C 13.23 79.59 13.30 137.30 13.30 195.01 C 13.50 201.03 12.95 207.09 13.68 213.09 C 15.28 220.46 22.35 226.31 29.94 226.19 C 96.01 226.16 162.08 226.21 228.15 226.17 C 235.30 226.11 241.45 220.10 242.55 213.19 C 243.17 191.14 242.75 169.06 242.88 146.99 C 242.87 104.71 242.94 62.43 242.74 20.15 Z"
     id="path6" />
  <path
     fill="#262626"
     d=" M 228.03 200.38 C 234.74 200.52 240.25 195.26 242.05 189.08 C 242.51 197.11 242.38 205.15 242.55 213.19 C 241.45 220.10 235.30 226.11 228.15 226.17 C 162.08 226.21 96.01 226.16 29.94 226.19 C 22.35 226.31 15.28 220.46 13.68 213.09 C 13.67 204.96 13.65 196.82 13.96 188.69 C 16.40 195.33 22.72 200.68 30.02 200.41 C 96.02 200.37 162.03 200.42 228.03 200.38 Z"
     id="path10" />
  <path
     fill="#999999"
     d=" M 0.00 229.53 C 3.89 238.74 12.36 247.30 22.97 247.10 C 94.31 247.11 165.65 247.06 236.99 247.12 C 241.00 247.00 245.55 247.65 248.98 245.07 C 253.24 241.88 255.08 236.54 256.00 231.50 L 256.00 239.27 C 254.76 245.46 251.79 251.95 245.61 254.53 C 242.45 255.08 239.21 254.71 236.03 254.79 C 166.01 254.79 96.00 254.76 26.00 254.80 C 22.79 254.70 19.31 255.34 16.39 253.67 C 8.57 250.23 1.59 243.57 0.00 234.90 L 0.00 229.53 Z"
     id="path12" />
  <text
     xml:space="preserve"
     style="font-style:normal;font-weight:normal;font-size:32px;line-height:125%;font-family:sans-serif;letter-spacing:0px;word-spacing:0px;fill:#ff8100;fill-opacity:1;stroke:none;stroke-width:1px;stroke-linecap:butt;stroke-linejoin:miter;stroke-opacity:1;"
     x="74.402016"
     y="153.98486"
     id="text3350"
     sodipodi:linespacing="125%"><tspan
       sodipodi:role="line"
       id="tspan3352"
       x="74.402016"
       y="153.98486"
       style="font-style:normal;font-variant:normal;font-weight:bold;font-stretch:normal;font-size:144px;font-family:sans-serif;-inkscape-font-specification:'sans-serif Bold';fill:#ff8100;fill-opacity:1;">V</tspan></text>
</svg>
